if (_typeface_js && _typeface_js.loadFace) _typeface_js.loadFace({"glyphs":{"S":{"x_min":88.46875,"x_max":779.921875,"ha":889,"o":"m 464 -13 b 779 251 647 -13 779 94 l 779 254 b 466 521 779 395 687 476 b 189 734 240 569 189 631 l 189 737 b 421 920 189 838 281 920 b 684 828 518 920 601 894 b 707 820 691 823 699 820 b 743 856 726 820 743 837 b 728 885 743 870 735 880 b 424 985 641 952 552 985 b 118 730 247 985 118 874 l 118 727 b 439 453 118 580 210 501 b 709 247 656 409 709 349 l 709 244 b 468 51 709 133 611 51 b 147 177 337 51 242 90 b 123 186 141 181 133 186 b 88 149 104 186 88 169 b 102 122 88 137 95 127 b 464 -13 209 31 321 -13 "},"/":{"x_min":-8.171875,"x_max":668.3125,"ha":694,"o":"m -8 -154 b 20 -183 -8 -170 4 -183 b 49 -163 34 -183 43 -174 l 664 1066 b 668 1084 666 1071 668 1078 b 639 1113 668 1100 656 1113 b 611 1093 626 1113 616 1105 l -4 -136 b -8 -154 -6 -141 -8 -148 "},"K":{"x_min":141.5625,"x_max":898.328125,"ha":993,"o":"m 141 30 b 176 -5 141 11 157 -5 b 212 30 196 -5 212 11 l 212 247 l 449 491 l 834 8 b 861 -5 839 1 849 -5 b 898 31 880 -5 898 12 b 887 58 898 43 894 49 l 499 542 l 862 916 b 873 941 869 923 873 931 b 838 977 873 959 856 977 b 813 966 827 977 819 971 l 212 333 l 212 941 b 176 977 212 960 196 977 b 141 941 157 977 141 960 l 141 30 "},"7":{"x_min":86.609375,"x_max":729.0625,"ha":815,"o":"m 229 27 b 264 -5 229 8 245 -5 b 298 19 281 -5 293 6 l 720 912 b 729 939 724 920 729 931 b 695 971 729 959 714 971 l 120 971 b 86 937 101 971 86 956 b 120 902 86 917 101 902 l 644 902 l 234 48 b 229 27 232 43 229 33 "},"d":{"x_min":81.671875,"x_max":771.75,"ha":917,"o":"m 771 984 b 737 1018 771 1005 756 1018 b 705 984 718 1018 705 1005 l 705 555 b 419 724 647 644 558 724 b 81 354 251 724 81 584 l 81 351 b 419 -16 81 120 251 -16 b 705 158 556 -16 645 65 l 705 29 b 739 -5 705 8 720 -5 b 771 29 758 -5 771 8 l 771 984 m 426 659 b 709 355 570 659 709 537 l 709 352 b 426 48 709 172 570 48 b 153 354 280 48 153 167 l 153 356 b 426 659 153 546 274 659 "},",":{"x_min":73.96875,"x_max":201.90625,"ha":319,"o":"m 73 -124 b 94 -145 73 -138 84 -145 b 165 -101 106 -145 140 -126 b 201 43 189 -76 201 -34 l 201 77 b 157 123 201 104 182 123 b 112 77 131 123 112 104 l 112 48 b 148 0 112 20 128 5 b 84 -106 152 -48 133 -79 b 73 -124 78 -111 73 -118 "},"Y":{"x_min":73.5,"x_max":902.421875,"ha":994,"o":"m 451 30 b 487 -5 451 11 468 -5 b 522 30 506 -5 522 11 l 522 385 l 891 914 b 902 942 896 923 902 932 b 867 977 902 960 884 977 b 835 956 852 977 843 967 l 488 449 l 142 956 b 110 977 134 969 125 977 b 73 941 91 977 73 960 b 80 919 73 934 76 925 l 451 384 l 451 30 "},"E":{"x_min":141.5625,"x_max":831.640625,"ha":931,"o":"m 176 0 l 798 0 b 831 33 816 0 831 15 b 798 66 831 51 816 66 l 212 66 l 212 456 l 730 456 b 763 490 748 456 763 472 b 730 523 763 508 748 523 l 212 523 l 212 905 l 792 905 b 824 938 809 905 824 920 b 792 971 824 956 809 971 l 176 971 b 141 935 157 971 141 955 l 141 36 b 176 0 141 16 157 0 "},"y":{"x_min":70.796875,"x_max":728.21875,"ha":817,"o":"m 210 -226 b 442 -24 310 -226 381 -173 l 724 660 b 728 678 726 667 728 671 b 694 713 728 698 713 713 b 661 688 676 713 666 702 l 419 74 l 141 685 b 106 713 134 701 126 713 b 70 678 85 713 70 698 b 76 658 70 671 73 664 l 386 4 l 382 -5 b 215 -162 337 -111 291 -162 b 126 -148 172 -162 148 -156 b 104 -142 118 -145 111 -142 b 73 -174 87 -142 73 -156 b 92 -204 73 -190 81 -199 b 210 -226 129 -217 164 -226 "},"\"":{"x_min":94.828125,"x_max":466.859375,"ha":569,"o":"m 340 639 b 359 613 337 619 347 613 b 382 638 371 613 377 620 l 460 917 b 466 950 462 930 466 942 b 445 974 466 967 457 974 l 419 974 b 381 938 397 974 385 963 l 340 639 m 95 639 b 114 613 92 619 102 613 b 137 638 126 613 132 620 l 215 917 b 221 950 217 930 221 942 b 200 974 221 967 212 974 l 174 974 b 136 938 152 974 140 963 l 95 639 "},"g":{"x_min":81.671875,"x_max":771.75,"ha":917,"o":"m 431 -226 b 683 -131 533 -226 623 -192 b 771 108 739 -74 771 5 l 771 677 b 737 712 771 696 756 712 b 705 677 718 712 705 696 l 705 565 b 415 723 647 648 553 723 b 81 387 247 723 81 591 l 81 384 b 415 51 81 181 247 51 b 705 215 552 51 645 127 l 705 112 b 432 -162 705 -69 592 -162 b 166 -72 336 -162 245 -131 b 147 -66 160 -69 155 -66 b 112 -98 129 -66 112 -83 b 127 -129 112 -111 118 -122 b 431 -226 217 -192 321 -226 m 421 116 b 153 387 279 116 153 227 l 153 390 b 421 658 153 555 276 658 b 709 388 566 658 709 552 l 709 385 b 421 116 709 224 566 116 "},"e":{"x_min":78.9375,"x_max":726.828125,"ha":811,"o":"m 149 387 b 405 662 161 544 268 662 b 654 387 564 662 645 530 l 149 387 m 690 98 b 700 122 698 106 700 115 b 668 154 700 140 686 154 b 646 144 658 154 651 149 b 421 47 590 88 521 47 b 149 326 285 47 161 149 l 694 326 b 726 358 710 326 726 341 b 408 724 726 560 602 724 b 78 355 220 724 78 560 l 78 352 b 419 -16 78 131 236 -16 b 690 98 544 -16 622 29 "},"J":{"x_min":57.171875,"x_max":620.671875,"ha":763,"o":"m 338 -13 b 533 63 415 -13 483 12 b 620 316 586 118 620 204 l 620 941 b 585 977 620 960 604 977 b 549 941 566 977 549 960 l 549 310 b 343 51 549 141 460 51 b 121 184 239 51 176 97 b 92 201 117 191 107 201 b 57 165 73 201 57 184 b 62 145 57 158 59 149 b 338 -13 119 52 206 -13 "},"|":{"x_min":164.6875,"x_max":224.578125,"ha":397,"o":"m 164 -152 b 194 -183 164 -169 178 -183 b 224 -152 210 -183 224 -169 l 224 1082 b 194 1113 224 1099 210 1113 b 164 1082 178 1113 164 1099 l 164 -152 "},"^":{"x_min":108.890625,"x_max":571.671875,"ha":694,"o":"m 338 916 l 502 698 b 551 678 513 682 529 678 b 571 693 564 678 571 686 b 564 711 571 699 570 703 l 383 956 b 345 981 371 971 362 981 l 334 981 b 296 956 318 981 308 971 l 115 711 b 108 693 110 703 108 699 b 127 678 108 686 115 678 b 175 698 148 678 164 682 l 338 916 "},"q":{"x_min":81.671875,"x_max":771.75,"ha":917,"o":"m 771 678 b 737 713 771 698 756 713 b 705 678 718 713 705 698 l 705 555 b 419 724 647 644 558 724 b 81 354 251 724 81 584 l 81 351 b 419 -16 81 120 251 -16 b 705 158 556 -16 645 65 l 705 -192 b 739 -227 705 -213 720 -227 b 771 -192 758 -227 771 -213 l 771 678 m 426 659 b 709 355 570 659 709 537 l 709 352 b 426 48 709 172 570 48 b 153 354 280 48 153 167 l 153 356 b 426 659 153 546 274 659 "},"b":{"x_min":126.578125,"x_max":816.671875,"ha":917,"o":"m 126 29 b 160 -5 126 9 141 -5 b 193 29 179 -5 193 9 l 193 152 b 479 -16 250 63 340 -16 b 816 354 646 -16 816 123 l 816 356 b 479 724 816 587 646 724 b 193 549 341 724 253 642 l 193 984 b 159 1018 193 1005 178 1018 b 126 984 140 1018 126 1005 l 126 29 m 472 48 b 189 352 328 48 189 170 l 189 355 b 472 659 189 535 328 659 b 744 354 617 659 744 540 l 744 351 b 472 48 744 161 623 48 "},"D":{"x_min":141.5625,"x_max":965.03125,"ha":1086,"o":"m 141 36 b 176 0 141 16 157 0 l 458 0 b 965 485 758 0 965 212 l 965 488 b 458 971 965 762 758 971 l 176 971 b 141 935 157 971 141 955 l 141 36 m 212 66 l 212 905 l 458 905 b 891 485 724 905 891 716 l 891 483 b 458 66 891 251 724 66 l 212 66 "},"z":{"x_min":83.0625,"x_max":684.9375,"ha":769,"o":"m 114 0 l 654 0 b 684 30 671 0 684 13 b 654 61 684 47 671 61 l 178 61 l 663 649 b 675 678 671 659 675 667 l 675 680 b 644 708 675 694 660 708 l 122 708 b 92 677 106 708 92 694 b 122 646 92 660 106 646 l 580 646 l 95 58 b 83 29 87 48 83 40 l 83 27 b 114 0 83 13 98 0 "},"w":{"x_min":78.9375,"x_max":1092.96875,"ha":1196,"o":"m 348 -9 l 351 -9 b 387 22 368 -9 381 1 l 586 601 l 784 22 b 820 -9 790 1 803 -9 l 823 -9 b 860 20 839 -9 853 1 l 1087 658 b 1092 681 1090 664 1092 673 b 1058 713 1092 698 1078 713 b 1026 687 1039 713 1030 701 l 823 86 l 622 687 b 588 713 616 702 607 713 l 585 713 b 552 687 567 713 558 702 l 351 86 l 149 684 b 114 713 144 701 133 713 b 78 680 95 713 78 698 b 84 658 78 673 81 664 l 311 20 b 348 -9 318 1 332 -9 "},"$":{"x_min":83.03125,"x_max":760.859375,"ha":878,"o":"m 404 1024 l 404 971 b 118 720 238 967 118 860 b 406 459 118 581 202 505 l 406 63 b 141 190 300 74 217 118 b 117 199 137 194 129 199 b 83 165 99 199 83 183 b 98 136 83 152 88 144 b 404 1 189 55 285 11 l 404 -108 b 436 -141 404 -126 419 -141 b 469 -108 454 -141 469 -126 l 469 0 b 760 256 639 5 760 109 b 466 516 760 392 673 472 l 466 905 b 671 814 539 896 604 869 b 695 805 680 806 687 805 b 730 839 714 805 730 820 b 711 871 730 853 724 862 b 469 969 638 927 567 960 l 469 1024 b 436 1057 469 1042 454 1057 b 404 1024 419 1057 404 1042 m 691 251 b 466 62 691 145 602 65 l 466 445 b 691 251 643 405 691 347 m 187 726 b 406 909 187 826 274 906 l 406 530 b 187 726 231 573 187 631 "},"\\":{"x_min":12.25,"x_max":688.71875,"ha":694,"o":"m 688 -154 b 684 -136 688 -148 687 -141 l 69 1093 b 40 1113 63 1105 54 1113 b 12 1084 24 1113 12 1100 b 16 1066 12 1078 13 1071 l 631 -163 b 660 -183 637 -174 646 -183 b 688 -154 676 -183 688 -170 "},"~":{"x_min":115.6875,"x_max":510.421875,"ha":639,"o":"m 164 352 b 225 405 181 390 196 405 b 400 348 272 405 348 348 b 507 452 449 348 481 372 b 510 469 509 456 510 465 b 485 492 510 483 499 492 b 461 473 473 492 465 481 b 400 420 445 435 430 420 b 225 477 353 420 277 477 b 118 373 176 477 144 453 b 115 356 117 369 115 360 b 140 333 115 342 126 333 b 164 352 153 333 160 344 "},"-":{"x_min":89.828125,"x_max":465.5,"ha":567,"o":"m 127 373 l 427 373 b 465 412 447 373 465 391 b 427 451 465 433 447 451 l 127 451 b 89 412 107 451 89 433 b 127 373 89 391 107 373 "},"Q":{"x_min":99.359375,"x_max":1057.578125,"ha":1181,"o":"m 577 -16 b 883 94 698 -16 803 24 l 990 -5 b 1020 -19 1000 -13 1008 -19 b 1057 18 1041 -19 1057 -2 b 1041 49 1057 31 1052 40 l 932 142 b 1057 485 1011 234 1057 356 l 1057 488 b 579 988 1057 753 868 988 b 99 485 291 988 99 751 l 99 483 b 577 -16 99 217 288 -16 m 673 279 l 833 140 b 579 48 764 81 677 48 b 172 485 344 48 172 245 l 172 488 b 577 923 172 728 341 923 b 984 485 812 923 984 726 l 984 483 b 880 188 984 369 945 265 l 724 334 b 694 348 714 342 706 348 b 657 310 673 348 657 331 b 673 279 657 297 662 288 "},"M":{"x_min":141.5625,"x_max":1039.890625,"ha":1206,"o":"m 141 29 b 175 -5 141 9 156 -5 b 209 29 194 -5 209 9 l 209 844 l 559 324 b 589 306 567 312 577 306 b 619 324 601 306 611 312 l 969 844 l 969 30 b 1004 -5 969 11 985 -5 b 1039 30 1023 -5 1039 11 l 1039 939 b 1004 975 1039 959 1023 975 l 997 975 b 962 955 982 975 970 967 l 590 397 l 219 955 b 183 975 209 967 198 975 l 176 975 b 141 939 157 975 141 959 l 141 29 "},"C":{"x_min":99.359375,"x_max":944.609375,"ha":1025,"o":"m 573 -16 b 933 134 732 -16 837 43 b 944 159 939 140 944 148 b 910 194 944 177 928 194 b 886 183 899 194 891 188 b 575 48 796 95 705 48 b 172 485 348 48 172 240 l 172 488 b 574 923 172 733 345 923 b 877 796 707 923 798 870 b 902 787 883 791 892 787 b 939 823 921 787 939 803 b 925 852 939 835 932 845 b 575 988 833 932 733 988 b 99 485 300 988 99 760 l 99 483 b 573 -16 99 204 300 -16 "},"̦":{"x_min":251.8125,"x_max":389.28125,"ha":694,"o":"m 334 -204 b 269 -276 334 -244 318 -262 b 251 -295 255 -280 251 -287 b 269 -310 251 -304 258 -310 b 356 -272 289 -310 333 -295 b 389 -161 381 -247 389 -217 l 389 -152 b 340 -97 389 -118 367 -97 b 291 -147 313 -97 291 -119 l 291 -155 b 334 -204 291 -183 310 -198 "},"[":{"x_min":133.390625,"x_max":510.421875,"ha":597,"o":"m 133 -144 b 168 -180 133 -163 149 -180 l 484 -180 b 510 -154 498 -180 510 -167 b 484 -127 510 -140 498 -127 l 196 -127 l 196 919 l 484 919 b 510 945 498 919 510 931 b 484 971 510 959 498 971 l 168 971 b 133 935 149 971 133 955 l 133 -144 "},"L":{"x_min":141.5625,"x_max":777.203125,"ha":860,"o":"m 141 36 b 176 0 141 16 157 0 l 744 0 b 777 33 762 0 777 15 b 744 66 777 51 762 66 l 212 66 l 212 941 b 176 977 212 960 196 977 b 141 941 157 977 141 960 l 141 36 "},"!":{"x_min":126.578125,"x_max":216.421875,"ha":350,"o":"m 151 270 b 171 249 151 259 160 249 b 191 270 182 249 191 259 l 213 941 b 179 975 213 960 198 975 l 163 975 b 129 941 144 975 129 960 l 151 270 m 126 77 l 126 40 b 171 -5 126 13 145 -5 b 216 40 197 -5 216 13 l 216 77 b 171 123 216 104 197 123 b 126 77 145 123 126 104 "}," ":{"x_min":0,"x_max":0,"ha":417},"{":{"x_min":74.859375,"x_max":581.1875,"ha":667,"o":"m 552 -192 b 581 -170 567 -195 581 -187 b 564 -148 581 -159 573 -151 b 345 94 367 -95 345 -43 l 345 198 b 204 398 345 322 295 367 b 345 598 289 424 345 474 l 345 702 b 564 945 345 839 367 892 b 581 967 573 948 581 956 b 552 989 581 984 567 992 b 279 710 322 942 279 853 l 279 601 b 107 424 279 492 247 424 b 74 398 85 424 74 413 b 107 372 74 383 85 372 b 279 195 247 372 279 304 l 279 86 b 552 -192 279 -56 322 -145 "},"X":{"x_min":99,"x_max":883,"ha":1003,"o":"m 99 27 b 130 -5 99 9 112 -5 b 164 16 145 -5 154 4 l 489 448 l 819 12 b 848 -5 827 1 835 -5 b 883 27 866 -5 883 11 b 870 55 883 37 878 45 l 534 497 l 859 920 b 869 944 865 927 869 935 b 838 977 869 962 855 977 b 804 955 823 977 813 967 l 492 544 l 176 959 b 146 977 168 970 160 977 b 112 944 128 977 112 960 b 124 916 112 934 118 925 l 448 495 l 108 51 b 99 27 103 44 99 36 "},"P":{"x_min":141.5625,"x_max":841.171875,"ha":928,"o":"m 141 30 b 176 -5 141 11 157 -5 b 212 30 196 -5 212 11 l 212 362 l 469 362 b 841 671 668 362 841 467 l 841 674 b 487 971 841 862 696 971 l 176 971 b 141 935 157 971 141 955 l 141 30 m 212 428 l 212 905 l 481 905 b 770 670 653 905 770 824 l 770 667 b 473 428 770 523 650 428 l 212 428 "},"%":{"x_min":74.859375,"x_max":1046.703125,"ha":1144,"o":"m 283 485 b 494 734 409 485 494 603 l 494 737 b 285 982 494 864 411 982 b 74 734 159 982 74 864 l 74 731 b 283 485 74 602 157 485 m 198 23 b 228 -5 198 6 212 -5 b 254 9 239 -5 247 0 l 917 930 b 922 948 921 935 922 941 b 892 977 922 964 909 977 b 867 962 882 977 873 971 l 204 41 b 198 23 200 36 198 30 m 835 -11 b 1046 237 962 -11 1046 106 l 1046 240 b 838 485 1046 367 963 485 b 627 237 711 485 627 367 l 627 234 b 835 -11 627 105 710 -11 m 285 545 b 145 734 209 545 145 624 l 145 737 b 283 923 145 838 202 923 b 423 734 359 923 423 842 l 423 731 b 285 545 423 627 366 545 m 838 48 b 698 237 762 48 698 127 l 698 240 b 835 426 698 341 755 426 b 975 237 911 426 975 345 l 975 234 b 838 48 975 130 918 48 "},"#":{"x_min":61,"x_max":890,"ha":972,"o":"m 193 34 b 222 -5 190 15 199 -5 b 257 24 240 -5 254 6 l 296 259 l 578 259 l 540 34 b 570 -5 537 15 546 -5 b 604 24 587 -5 601 6 l 643 259 l 802 259 b 835 292 820 259 835 274 b 802 324 835 310 820 324 l 654 324 l 710 652 l 857 652 b 890 685 875 652 890 667 b 857 717 890 703 875 717 l 721 717 l 757 937 b 728 977 760 956 751 977 b 693 946 710 977 696 964 l 655 717 l 374 717 l 410 937 b 380 977 413 956 404 977 b 346 946 363 977 349 964 l 308 717 l 148 717 b 115 684 130 717 115 702 b 148 652 115 666 130 652 l 297 652 l 242 324 l 93 324 b 61 291 75 324 61 309 b 93 259 61 273 75 259 l 231 259 l 193 34 m 307 324 l 363 652 l 644 652 l 589 324 l 307 324 "},"_":{"x_min":-32.671875,"x_max":849.328125,"ha":833,"o":"m -2 -222 l 819 -222 b 849 -191 835 -222 849 -208 b 819 -161 849 -174 835 -161 l -2 -161 b -32 -191 -19 -161 -32 -174 b -2 -222 -32 -208 -19 -222 "},"+":{"x_min":87.109375,"x_max":756.78125,"ha":861,"o":"m 387 186 b 421 151 387 166 402 151 b 455 186 441 151 455 166 l 455 455 l 724 455 b 756 488 741 455 756 470 b 724 521 756 506 741 521 l 455 521 l 455 791 b 421 826 455 810 441 826 b 387 791 402 826 387 810 l 387 521 l 119 521 b 87 488 102 521 87 506 b 119 455 87 470 102 455 l 387 455 l 387 186 "},")":{"x_min":81.671875,"x_max":488.640625,"ha":597,"o":"m 107 -192 b 123 -188 114 -192 121 -190 b 488 398 353 -51 488 149 b 123 985 488 646 353 848 b 107 989 121 987 114 989 b 81 963 92 989 81 978 b 96 938 81 952 87 944 b 417 398 302 805 417 626 b 96 -141 417 170 302 -8 b 81 -166 87 -147 81 -155 b 107 -192 81 -181 92 -192 "},"'":{"x_min":94.828125,"x_max":221.859375,"ha":319,"o":"m 95 639 b 114 613 92 619 102 613 b 137 638 126 613 132 620 l 215 917 b 221 950 217 930 221 942 b 200 974 221 967 212 974 l 174 974 b 136 938 152 974 140 963 l 95 639 "},"}":{"x_min":72.140625,"x_max":578.46875,"ha":667,"o":"m 100 989 b 72 967 85 992 72 984 b 88 945 72 956 80 948 b 307 702 285 892 307 839 l 307 598 b 449 398 307 474 357 428 b 307 198 363 372 307 322 l 307 94 b 88 -148 307 -43 285 -95 b 72 -170 80 -151 72 -159 b 100 -192 72 -187 85 -195 b 374 86 330 -145 374 -56 l 374 195 b 545 372 374 304 405 372 b 578 398 567 372 578 383 b 545 424 578 413 567 424 b 374 601 405 424 374 492 l 374 710 b 100 989 374 853 330 942 "},"a":{"x_min":69.421875,"x_max":668.3125,"ha":797,"o":"m 337 -16 b 602 118 469 -16 555 50 l 602 29 b 635 -5 602 8 616 -5 b 668 29 654 -5 668 8 l 668 441 b 597 641 668 529 643 594 b 378 719 547 693 472 719 b 149 666 289 719 220 698 b 130 636 142 663 130 652 b 161 604 130 619 145 604 b 176 608 166 604 171 605 b 374 655 234 636 298 655 b 602 439 517 655 602 582 l 602 408 b 372 439 536 426 469 439 b 69 208 193 439 69 355 l 69 205 b 337 -16 69 58 208 -16 m 341 47 b 140 209 235 47 140 107 l 140 212 b 368 377 140 311 221 377 b 604 346 468 377 545 361 l 604 265 b 341 47 604 136 483 47 "},"T":{"x_min":68.0625,"x_max":813.953125,"ha":900,"o":"m 405 30 b 441 -5 405 11 421 -5 b 476 30 460 -5 476 11 l 476 905 l 781 905 b 813 938 798 905 813 920 b 781 971 813 956 798 971 l 100 971 b 68 938 83 971 68 956 b 100 905 68 920 83 905 l 405 905 l 405 30 "},"=":{"x_min":107.53125,"x_max":736.359375,"ha":861,"o":"m 142 609 l 700 609 b 736 644 720 609 736 624 b 700 680 736 663 720 680 l 142 680 b 107 644 123 680 107 663 b 142 609 107 624 123 609 m 142 297 l 700 297 b 736 331 720 297 736 312 b 700 367 736 351 720 367 l 142 367 b 107 331 123 367 107 351 b 142 297 107 312 123 297 "},"N":{"x_min":141.5625,"x_max":933.71875,"ha":1097,"o":"m 141 29 b 175 -5 141 9 156 -5 b 209 29 194 -5 209 9 l 209 866 l 864 19 b 899 -4 875 5 886 -4 l 905 -4 b 933 26 921 -4 933 9 l 933 942 b 899 977 933 962 918 977 b 865 942 880 977 865 962 l 865 123 l 223 955 b 187 975 213 967 202 975 l 176 975 b 141 939 157 975 141 959 l 141 29 "},"2":{"x_min":59.890625,"x_max":721.390625,"ha":819,"o":"m 59 33 b 93 0 59 13 74 0 l 687 0 b 721 34 706 0 721 15 b 687 69 721 54 706 69 l 176 69 l 468 338 b 706 716 635 494 706 583 l 706 719 b 423 985 706 870 585 985 b 95 794 262 985 175 913 b 89 776 91 788 89 781 b 122 744 89 757 104 744 b 149 759 134 744 142 749 b 416 921 223 863 300 921 b 631 713 530 921 631 839 b 420 381 631 610 578 527 l 76 63 b 59 33 65 54 59 45 "},"j":{"x_min":-6.8125,"x_max":210.96875,"ha":346,"o":"m 127 927 b 168 885 127 903 145 885 b 210 927 191 885 210 903 l 210 950 b 168 992 210 974 191 992 b 127 950 145 992 127 974 l 127 927 m 54 -226 b 202 -62 144 -226 202 -173 l 202 678 b 168 713 202 699 187 713 b 136 678 149 713 136 698 l 136 -66 b 53 -165 136 -133 102 -165 b 23 -163 44 -165 34 -163 b -6 -194 6 -163 -6 -177 b 21 -224 -6 -211 5 -222 b 54 -226 31 -226 42 -226 "},"Z":{"x_min":96.984375,"x_max":851.015625,"ha":956,"o":"m 131 0 l 818 0 b 851 33 836 0 851 15 b 818 65 851 51 836 65 l 193 65 l 829 909 b 841 939 837 920 841 927 l 841 941 b 807 971 841 956 825 971 l 143 971 b 110 938 125 971 110 956 b 143 906 110 920 125 906 l 744 906 l 109 62 b 96 31 101 51 96 44 l 96 30 b 131 0 96 15 113 0 "},"u":{"x_min":112.96875,"x_max":707.78125,"ha":851,"o":"m 707 678 b 673 713 707 699 692 713 b 641 678 654 713 641 699 l 641 298 b 400 45 641 151 536 45 b 179 287 259 45 179 141 l 179 678 b 145 713 179 699 164 713 b 112 678 126 713 112 699 l 112 274 b 390 -16 112 105 215 -16 b 641 131 517 -16 594 48 l 641 29 b 675 -5 641 8 656 -5 b 707 29 694 -5 707 9 l 707 678 "},"1":{"x_min":40.828125,"x_max":313.0625,"ha":465,"o":"m 243 30 b 279 -5 243 11 259 -5 b 313 30 298 -5 313 11 l 313 946 b 279 981 313 964 300 981 l 276 981 b 232 971 261 981 247 977 l 66 909 b 40 878 51 903 40 895 b 70 848 40 862 54 848 b 88 852 76 848 81 849 l 243 906 l 243 30 "},"k":{"x_min":126.578125,"x_max":690.078125,"ha":778,"o":"m 126 29 b 160 -5 126 8 141 -5 b 193 29 179 -5 193 8 l 193 172 l 362 345 l 628 9 b 657 -5 638 -1 645 -5 b 690 26 676 -5 690 6 b 680 51 690 36 687 43 l 408 394 l 662 658 b 673 681 671 666 673 671 b 642 713 673 699 660 713 b 619 703 632 713 626 710 l 193 254 l 193 984 b 159 1018 193 1003 178 1018 b 126 984 140 1018 126 1003 l 126 29 "},"€":{"x_min":75.03125,"x_max":895.828125,"ha":1000,"o":"m 895 188 b 864 219 895 206 882 219 b 837 204 852 219 844 213 b 586 47 776 112 698 47 b 275 340 433 47 317 165 l 637 340 b 669 373 654 340 669 355 b 637 406 669 391 654 406 l 262 406 b 258 487 260 431 258 459 b 265 577 258 517 261 548 l 637 577 b 669 610 654 577 669 592 b 637 644 669 628 654 644 l 277 644 b 570 924 321 807 433 924 b 833 774 693 924 762 870 b 861 759 838 766 849 759 b 894 792 879 759 894 774 b 886 814 894 801 890 809 b 573 988 815 914 722 988 b 208 644 396 988 257 842 l 107 644 b 75 610 90 644 75 628 b 107 577 75 592 90 577 l 194 577 b 189 484 190 546 189 516 b 193 406 189 458 190 431 l 107 406 b 75 373 90 406 75 391 b 107 340 75 355 90 340 l 204 340 b 582 -16 249 127 394 -16 b 889 169 725 -16 818 65 b 895 188 893 174 895 181 "},"<":{"x_min":81.984375,"x_max":723.0625,"ha":861,"o":"m 693 144 b 723 177 710 144 723 159 b 701 209 723 192 713 202 l 169 490 l 701 767 b 723 799 713 774 723 784 b 693 832 723 817 710 832 b 672 827 686 832 678 830 l 106 527 b 81 490 88 517 81 505 l 81 487 b 106 449 81 472 88 459 l 672 149 b 693 144 678 147 686 144 "},"t":{"x_min":57.171875,"x_max":479.109375,"ha":556,"o":"m 357 -12 b 455 5 397 -12 428 -4 b 477 34 469 11 477 20 b 447 65 477 51 462 65 b 368 51 438 65 416 51 b 230 188 288 51 230 87 l 230 645 l 447 645 b 479 676 464 645 479 659 b 447 708 479 692 464 708 l 230 708 l 230 905 b 196 939 230 924 215 939 b 163 905 176 939 163 924 l 163 708 l 88 708 b 57 677 72 708 57 694 b 88 645 57 660 72 645 l 163 645 l 163 181 b 357 -12 163 47 250 -12 "},"W":{"x_min":81.671875,"x_max":1419.640625,"ha":1531,"o":"m 404 20 b 441 -11 411 1 421 -11 l 443 -11 b 480 20 462 -11 475 2 l 749 837 l 1019 20 b 1056 -11 1024 2 1037 -11 l 1058 -11 b 1095 20 1078 -11 1088 2 l 1414 921 b 1419 941 1416 928 1419 935 b 1384 977 1419 959 1401 977 b 1350 948 1367 977 1357 966 l 1058 106 l 788 949 b 754 977 782 964 771 977 l 751 977 b 717 949 732 977 722 964 l 446 106 l 156 944 b 118 977 151 960 137 977 b 81 939 99 977 81 959 b 85 921 81 934 83 928 l 404 20 "},"v":{"x_min":72.140625,"x_max":720.03125,"ha":808,"o":"m 435 19 l 715 660 b 720 678 718 667 720 671 b 686 713 720 698 705 713 b 653 688 668 713 658 702 l 396 76 l 142 685 b 107 713 136 701 127 713 b 72 678 87 713 72 698 b 77 658 72 671 74 664 l 356 19 b 394 -9 364 1 375 -9 l 397 -9 b 435 19 416 -9 427 1 "},">":{"x_min":120.9375,"x_max":762.015625,"ha":861,"o":"m 150 832 b 120 799 133 832 120 817 b 142 767 120 784 130 774 l 674 487 l 142 209 b 120 177 130 202 120 192 b 150 144 120 159 133 144 b 171 149 157 144 165 147 l 737 449 b 762 487 755 459 762 472 l 762 490 b 737 527 762 505 755 517 l 171 827 b 150 832 165 830 157 832 "},"s":{"x_min":69.421875,"x_max":590.71875,"ha":690,"o":"m 351 -13 b 590 192 484 -13 590 66 l 590 195 b 362 394 590 320 473 362 b 168 531 262 423 168 452 l 168 534 b 326 658 168 605 231 658 b 519 599 393 658 460 635 b 539 594 524 596 530 594 b 571 627 556 594 571 609 b 553 658 571 642 562 652 b 329 721 487 696 404 721 b 100 526 194 721 100 639 l 100 523 b 338 329 100 397 225 362 b 522 187 435 301 522 270 l 522 184 b 355 49 522 102 449 49 b 123 130 272 49 196 77 b 102 137 118 134 110 137 b 69 104 84 137 69 122 b 81 77 69 93 76 81 b 351 -13 152 23 257 -13 "},"B":{"x_min":141.5625,"x_max":896.96875,"ha":1003,"o":"m 141 36 b 176 0 141 16 157 0 l 555 0 b 896 265 760 0 896 102 l 896 267 b 681 499 896 402 796 469 b 843 730 759 531 843 598 l 843 733 b 782 885 843 794 822 845 b 534 971 729 939 642 971 l 176 971 b 141 935 157 971 141 955 l 141 36 m 212 523 l 212 905 l 533 905 b 771 726 686 905 771 832 l 771 723 b 526 523 771 594 669 523 l 212 523 m 212 66 l 212 456 l 534 456 b 824 267 722 456 824 387 l 824 265 b 558 66 824 142 721 66 l 212 66 "},"?":{"x_min":50.359375,"x_max":656.0625,"ha":742,"o":"m 334 248 b 356 273 345 248 355 256 l 367 427 b 656 710 525 447 656 538 l 656 713 b 360 984 656 862 540 984 b 58 834 223 984 130 921 b 50 810 53 827 50 819 b 81 780 50 792 63 780 b 108 794 92 780 102 785 b 357 920 175 871 254 920 b 583 710 496 920 583 824 l 583 708 b 326 487 583 573 479 497 b 295 452 306 485 294 470 l 310 273 b 332 248 311 256 321 248 l 334 248 m 288 77 l 288 40 b 333 -5 288 13 307 -5 b 378 40 359 -5 378 13 l 378 77 b 333 123 378 104 359 123 b 288 77 307 123 288 104 "},"H":{"x_min":141.5625,"x_max":892.890625,"ha":1056,"o":"m 141 30 b 176 -5 141 11 157 -5 b 212 30 196 -5 212 11 l 212 455 l 822 455 l 822 30 b 857 -5 822 11 838 -5 b 892 30 876 -5 892 11 l 892 941 b 857 977 892 960 876 977 b 822 941 838 977 822 960 l 822 521 l 212 521 l 212 941 b 176 977 212 960 196 977 b 141 941 157 977 141 960 l 141 30 "},"c":{"x_min":78.9375,"x_max":709.140625,"ha":793,"o":"m 432 -16 b 700 105 551 -16 631 33 b 709 126 706 111 709 119 b 676 159 709 142 692 159 b 654 148 666 159 660 154 b 436 47 598 91 526 47 b 151 354 277 47 151 183 l 151 356 b 431 660 151 526 273 660 b 646 560 525 660 590 615 b 669 552 651 555 661 552 b 703 587 688 552 703 567 b 694 612 703 596 699 606 b 432 724 631 671 552 724 b 78 354 234 724 78 552 l 78 351 b 432 -16 78 152 232 -16 "},"&":{"x_min":66.375,"x_max":891.21875,"ha":967,"o":"m 855 -12 b 891 23 876 -12 891 2 b 874 56 891 38 885 45 l 726 212 b 855 442 774 277 816 355 b 859 460 858 448 859 456 b 825 495 859 480 844 495 b 794 474 806 495 797 481 b 680 260 760 394 722 322 l 429 523 b 663 774 575 574 663 653 l 663 777 b 444 988 663 894 568 988 b 206 767 305 988 206 892 l 206 764 b 312 542 206 684 240 624 b 66 258 157 484 66 388 l 66 255 b 359 -13 66 97 191 -13 b 681 154 486 -13 591 47 l 823 4 b 855 -12 832 -5 840 -12 m 387 567 b 277 767 303 659 277 706 l 277 770 b 442 927 277 857 345 927 b 593 774 527 927 593 860 l 593 771 b 387 567 593 680 523 612 m 360 48 b 137 258 229 48 137 140 l 137 260 b 354 498 137 355 203 445 l 636 201 b 360 48 557 106 466 48 "},"−":{"x_min":87.109375,"x_max":756.78125,"ha":861,"o":"m 722 453 b 756 488 741 453 756 469 b 722 523 756 508 741 523 l 121 523 b 87 488 102 523 87 508 b 121 453 87 469 102 453 l 722 453 "},"I":{"x_min":151.078125,"x_max":221.859375,"ha":381,"o":"m 151 30 b 186 -5 151 11 167 -5 b 221 30 205 -5 221 11 l 221 941 b 186 977 221 960 205 977 b 151 941 167 977 151 960 l 151 30 "},"ə":{"x_min":68.0625,"x_max":715.953125,"ha":811,"o":"m 645 320 b 389 45 632 163 526 45 b 140 320 230 45 149 177 l 645 320 m 104 609 b 93 585 96 601 93 592 b 126 553 93 567 108 553 b 148 563 136 553 142 558 b 372 660 204 619 273 660 b 645 381 509 660 632 558 l 100 381 b 68 349 84 381 68 366 b 386 -16 68 147 191 -16 b 715 352 574 -16 715 147 l 715 355 b 375 724 715 576 558 724 b 104 609 250 724 172 678 "},"G":{"x_min":99.359375,"x_max":952.78125,"ha":1089,"o":"m 578 -16 b 928 108 720 -16 838 37 b 952 149 943 120 952 136 l 952 467 b 917 503 952 487 936 503 l 588 503 b 555 470 570 503 555 488 b 588 437 555 452 570 437 l 884 437 l 884 158 b 581 47 815 98 702 47 b 172 485 326 47 172 234 l 172 488 b 566 923 172 723 334 923 b 852 824 698 923 778 882 b 873 814 860 817 868 814 b 909 851 892 814 909 831 b 895 880 909 863 903 873 b 570 988 807 948 713 988 b 99 485 285 988 99 748 l 99 483 b 578 -16 99 209 277 -16 "},"(":{"x_min":96.640625,"x_max":503.609375,"ha":597,"o":"m 477 -192 b 503 -166 492 -192 503 -181 b 488 -141 503 -155 498 -147 b 167 398 283 -8 167 170 b 488 938 167 626 283 805 b 503 963 498 944 503 952 b 477 989 503 978 492 989 b 461 985 470 989 464 987 b 96 398 231 848 96 646 b 461 -188 96 149 231 -51 b 477 -192 464 -190 470 -192 "},"`":{"x_min":221.859375,"x_max":406.96875,"ha":694,"o":"m 389 821 b 406 834 398 821 406 827 b 401 849 406 839 404 845 l 317 978 b 279 1003 306 995 295 1003 b 221 971 253 1003 221 985 b 236 946 221 963 228 955 l 345 839 b 389 821 362 824 371 821 "},"U":{"x_min":126.578125,"x_max":907.859375,"ha":1056,"o":"m 517 -15 b 907 412 748 -15 907 133 l 907 941 b 872 977 907 960 891 977 b 837 941 853 977 837 960 l 837 403 b 519 49 837 169 713 49 b 197 410 318 49 197 181 l 197 941 b 161 977 197 960 181 977 b 126 941 142 977 126 960 l 126 403 b 517 -15 126 131 288 -15 "},"F":{"x_min":141.5625,"x_max":818.03125,"ha":911,"o":"m 141 30 b 176 -5 141 11 157 -5 b 212 30 196 -5 212 11 l 212 440 l 724 440 b 756 473 741 440 756 455 b 724 506 756 491 741 506 l 212 506 l 212 905 l 785 905 b 818 938 803 905 818 920 b 785 971 818 956 803 971 l 176 971 b 141 935 157 971 141 955 l 141 30 "},"r":{"x_min":126.578125,"x_max":507.6875,"ha":556,"o":"m 126 29 b 160 -5 126 8 141 -5 b 193 29 179 -5 193 9 l 193 290 b 472 644 193 517 325 630 b 507 681 494 645 507 662 b 472 719 507 702 492 719 b 193 506 374 719 253 644 l 193 678 b 159 713 193 699 178 713 b 126 678 140 713 126 698 l 126 29 "},":":{"x_min":118.421875,"x_max":208.25,"ha":333,"o":"m 118 667 l 118 630 b 163 584 118 603 137 584 b 208 630 189 584 208 603 l 208 667 b 163 713 208 694 189 713 b 118 667 137 713 118 694 m 118 77 l 118 40 b 163 -5 118 13 137 -5 b 208 40 189 -5 208 13 l 208 77 b 163 123 208 104 189 123 b 118 77 137 123 118 104 "},"x":{"x_min":90.8125,"x_max":684.1875,"ha":792,"o":"m 90 26 b 120 -5 90 9 104 -5 b 149 11 133 -5 141 1 l 386 315 l 624 8 b 651 -5 631 0 639 -5 b 684 26 669 -5 684 8 b 674 49 684 36 680 43 l 429 362 l 665 659 b 673 681 670 666 673 673 b 643 713 673 698 659 713 b 614 696 631 713 622 706 l 388 408 l 161 699 b 134 713 154 708 146 713 b 101 681 116 713 101 699 b 111 658 101 671 105 664 l 345 360 l 98 48 b 90 26 93 41 90 34 "},"*":{"x_min":103.4375,"x_max":481.828125,"ha":597,"o":"m 265 588 b 292 558 264 571 276 558 b 319 588 308 558 321 571 l 308 739 l 432 653 b 454 645 441 648 446 645 b 481 674 469 645 481 659 b 462 701 481 689 472 696 l 322 769 l 462 837 b 481 863 472 841 481 848 b 454 892 481 878 469 892 b 432 884 446 892 441 889 l 308 798 l 319 949 b 292 980 321 966 308 980 b 265 949 276 980 264 966 l 276 798 l 152 884 b 130 892 144 889 140 892 b 103 863 115 891 103 878 b 122 837 103 851 111 842 l 262 769 l 122 701 b 103 674 112 696 103 687 b 130 645 103 659 115 645 b 152 653 138 645 144 648 l 276 739 l 265 588 "},"V":{"x_min":76.21875,"x_max":945.96875,"ha":1042,"o":"m 509 -9 l 511 -9 b 553 22 533 -9 545 2 l 943 930 b 945 944 945 935 945 938 b 911 977 945 960 931 977 b 876 949 895 977 883 964 l 511 77 l 148 948 b 111 977 141 964 129 977 b 76 942 91 977 76 959 b 78 927 76 935 76 932 l 466 22 b 509 -9 475 2 487 -9 "},"h":{"x_min":126.578125,"x_max":721.390625,"ha":851,"o":"m 126 29 b 160 -5 126 8 141 -5 b 193 29 179 -5 193 8 l 193 409 b 434 662 193 556 298 662 b 654 420 574 662 654 566 l 654 29 b 688 -5 654 8 669 -5 b 721 29 707 -5 721 8 l 721 433 b 443 724 721 602 619 724 b 193 576 317 724 239 659 l 193 984 b 159 1018 193 1003 178 1018 b 126 984 140 1018 126 1003 l 126 29 "},"0":{"x_min":88.46875,"x_max":877.921875,"ha":986,"o":"m 481 -16 b 877 485 724 -16 877 217 l 877 488 b 484 988 877 756 726 988 b 88 485 242 988 88 753 l 88 483 b 481 -16 88 215 239 -16 m 484 48 b 161 485 287 48 161 260 l 161 488 b 481 923 161 714 284 923 b 804 485 679 923 804 712 l 804 483 b 484 48 804 258 681 48 "},".":{"x_min":111.609375,"x_max":201.4375,"ha":319,"o":"m 111 77 l 111 40 b 156 -5 111 13 130 -5 b 201 40 182 -5 201 13 l 201 77 b 156 123 201 104 182 123 b 111 77 130 123 111 104 "},"@":{"x_min":72.140625,"x_max":1261.75,"ha":1361,"o":"m 679 -226 b 1031 -127 816 -226 931 -188 b 1041 -109 1035 -124 1041 -119 b 1023 -90 1041 -99 1033 -90 b 1009 -93 1019 -90 1012 -91 b 679 -181 909 -151 812 -181 b 118 379 351 -181 118 68 b 668 942 118 688 353 942 b 1215 437 981 942 1215 691 b 1019 149 1215 236 1114 149 b 896 272 941 149 896 192 b 909 372 896 288 901 323 l 955 641 b 924 684 959 663 945 684 b 890 651 906 684 894 671 l 875 569 b 672 692 843 630 782 692 b 355 347 519 692 355 545 b 596 99 355 199 464 99 b 828 229 703 99 773 158 b 1014 99 852 149 918 99 b 1261 437 1129 99 1261 199 b 668 987 1261 730 1001 987 b 72 379 334 987 72 710 b 679 -226 72 47 330 -226 m 607 165 b 426 352 500 165 426 234 b 672 626 426 508 548 626 b 852 433 775 626 852 542 b 607 165 852 297 735 165 "},"f":{"x_min":61.25,"x_max":483.1875,"ha":503,"o":"m 167 29 b 201 -5 167 9 182 -5 b 234 29 220 -5 234 9 l 234 645 l 450 645 b 481 676 466 645 481 659 b 450 708 481 694 468 708 l 234 708 l 234 776 b 374 955 234 896 279 955 b 445 946 400 955 423 950 b 483 975 465 942 483 956 b 457 1007 483 991 472 1005 b 374 1017 434 1013 408 1017 b 228 962 313 1017 264 998 b 167 777 189 921 167 857 l 167 708 l 92 708 b 61 677 76 708 61 694 b 92 645 61 659 74 645 l 167 645 l 167 29 "},";":{"x_min":79.96875,"x_max":207.90625,"ha":333,"o":"m 118 667 l 118 630 b 163 584 118 603 137 584 b 207 630 188 584 207 603 l 207 667 b 163 713 207 694 188 713 b 118 667 137 713 118 694 m 79 -124 b 100 -145 79 -138 90 -145 b 171 -101 112 -145 146 -126 b 207 43 195 -76 207 -34 l 207 77 b 163 123 207 104 188 123 b 118 77 137 123 118 104 l 118 48 b 154 0 118 20 134 5 b 90 -106 158 -48 139 -79 b 79 -124 84 -111 79 -118 "},"i":{"x_min":127.9375,"x_max":210.96875,"ha":346,"o":"m 127 927 b 168 885 127 903 145 885 b 210 927 191 885 210 903 l 210 950 b 168 992 210 974 191 992 b 127 950 145 992 127 974 l 127 927 m 136 29 b 170 -5 136 8 151 -5 b 202 29 189 -5 202 8 l 202 678 b 168 713 202 699 187 713 b 136 678 149 713 136 698 l 136 29 "},"6":{"x_min":87.109375,"x_max":784,"ha":892,"o":"m 450 -16 b 784 302 638 -16 784 119 l 784 305 b 455 599 784 478 628 599 b 157 419 300 599 212 513 b 469 923 151 716 276 923 b 687 835 552 923 619 892 b 709 827 694 830 700 827 b 744 863 728 827 744 844 b 729 892 744 875 739 884 b 475 988 653 953 575 988 b 87 462 238 988 87 755 l 87 459 b 208 80 87 258 129 161 b 450 -16 265 22 352 -16 m 455 48 b 186 292 302 48 186 154 l 186 295 b 451 535 186 415 295 535 b 710 302 602 535 710 435 l 710 299 b 455 48 710 162 609 48 "},"A":{"x_min":75.890625,"x_max":997.359375,"ha":1097,"o":"m 75 24 b 108 -5 75 8 90 -5 b 142 20 124 -5 135 4 l 254 272 l 816 272 l 927 22 b 963 -5 934 6 947 -5 b 997 27 982 -5 997 9 b 991 49 997 34 996 41 l 586 946 b 538 981 576 967 563 981 l 535 981 b 488 946 511 981 497 967 l 81 47 b 75 24 77 38 75 30 m 284 337 l 535 899 l 786 337 l 284 337 "},"n":{"x_min":126.578125,"x_max":721.390625,"ha":851,"o":"m 126 29 b 160 -5 126 8 141 -5 b 193 29 179 -5 193 8 l 193 409 b 434 662 193 556 298 662 b 654 420 574 662 654 566 l 654 29 b 688 -5 654 8 669 -5 b 721 29 707 -5 721 8 l 721 433 b 443 724 721 602 619 724 b 193 576 317 724 239 659 l 193 678 b 159 713 193 699 178 713 b 126 678 140 713 126 698 l 126 29 "},"O":{"x_min":99.359375,"x_max":1057.578125,"ha":1181,"o":"m 577 -16 b 1057 485 865 -16 1057 220 l 1057 488 b 579 988 1057 753 868 988 b 99 485 291 988 99 751 l 99 483 b 577 -16 99 217 288 -16 m 579 48 b 172 485 344 48 172 245 l 172 488 b 577 923 172 728 341 923 b 984 485 812 923 984 726 l 984 483 b 579 48 984 242 815 48 "},"3":{"x_min":74.859375,"x_max":733.640625,"ha":847,"o":"m 423 -16 b 733 266 588 -16 733 97 l 733 269 b 396 544 733 447 577 533 l 711 912 b 724 941 718 920 724 931 b 692 971 724 959 710 971 l 151 971 b 117 937 132 971 117 956 b 151 903 117 917 132 903 l 622 903 l 308 535 b 296 509 300 526 296 517 b 329 477 296 491 311 477 l 363 477 b 660 266 534 477 660 402 l 660 263 b 424 48 660 136 552 48 b 138 191 304 48 213 99 b 110 205 133 198 122 205 b 74 169 91 205 74 188 b 84 144 74 159 80 149 b 423 -16 160 49 274 -16 "},"]":{"x_min":74.859375,"x_max":451.890625,"ha":597,"o":"m 451 935 b 416 971 451 955 435 971 l 100 971 b 74 945 87 971 74 959 b 100 919 74 931 87 919 l 389 919 l 389 -127 l 100 -127 b 74 -154 87 -127 74 -140 b 100 -180 74 -167 87 -180 l 416 -180 b 451 -144 435 -180 451 -163 l 451 935 "},"m":{"x_min":126.578125,"x_max":1176,"ha":1321,"o":"m 126 29 b 160 -5 126 8 141 -5 b 193 29 179 -5 193 8 l 193 408 b 415 662 193 551 291 662 b 617 424 539 662 617 571 l 617 29 b 651 -5 617 8 632 -5 b 684 29 671 -5 684 8 l 684 412 b 903 662 684 570 786 662 b 1109 420 1031 662 1109 573 l 1109 29 b 1143 -5 1109 8 1124 -5 b 1176 29 1162 -5 1176 8 l 1176 428 b 909 724 1176 606 1073 724 b 658 571 778 724 703 651 b 424 724 620 653 545 724 b 193 581 300 724 238 655 l 193 678 b 159 713 193 699 178 713 b 126 678 140 713 126 698 l 126 29 "},"9":{"x_min":89.828125,"x_max":786.71875,"ha":892,"o":"m 398 -16 b 786 508 620 -16 786 202 l 786 510 b 666 889 786 705 740 814 b 424 988 609 948 526 988 b 89 662 225 988 89 841 l 89 659 b 419 362 89 492 227 362 b 715 549 568 362 661 449 b 400 48 726 258 592 48 b 172 145 318 48 246 81 b 147 155 164 152 155 155 b 112 119 127 155 112 138 b 127 90 112 106 118 98 b 398 -16 200 30 287 -16 m 421 426 b 163 662 270 426 163 526 l 163 664 b 416 923 163 799 259 923 b 687 676 574 923 687 813 l 687 673 b 421 426 687 551 583 426 "},"l":{"x_min":136.109375,"x_max":202.8125,"ha":346,"o":"m 136 29 b 170 -5 136 8 151 -5 b 202 29 189 -5 202 8 l 202 984 b 168 1018 202 1003 187 1018 b 136 984 149 1018 136 1003 l 136 29 "},"8":{"x_min":74.859375,"x_max":782.640625,"ha":875,"o":"m 428 -13 b 782 259 628 -13 782 98 l 782 262 b 571 502 782 376 691 462 b 749 728 665 541 749 613 l 749 731 b 428 985 749 882 593 985 b 107 731 264 985 107 882 l 107 728 b 285 502 107 613 191 541 b 74 262 166 462 74 376 l 74 259 b 428 -13 74 98 228 -13 m 428 528 b 181 728 294 528 181 609 l 181 731 b 428 920 181 841 289 920 b 676 731 567 920 676 841 l 676 728 b 428 528 676 609 563 528 m 428 51 b 148 256 253 51 148 147 l 148 259 b 428 467 148 380 273 467 b 709 259 583 467 709 380 l 709 256 b 428 51 709 147 604 51 "},"p":{"x_min":126.578125,"x_max":816.671875,"ha":917,"o":"m 126 -192 b 160 -227 126 -213 141 -227 b 193 -192 179 -227 193 -213 l 193 152 b 479 -16 250 63 340 -16 b 816 354 646 -16 816 123 l 816 356 b 479 724 816 587 646 724 b 193 549 341 724 253 642 l 193 678 b 159 713 193 699 178 713 b 126 678 140 713 126 699 l 126 -192 m 472 48 b 189 352 328 48 189 170 l 189 355 b 472 659 189 535 328 659 b 744 354 617 659 744 540 l 744 351 b 472 48 744 161 623 48 "},"4":{"x_min":63.96875,"x_max":834.359375,"ha":922,"o":"m 605 29 b 639 -5 605 9 620 -5 b 673 29 658 -5 673 9 l 673 237 l 803 237 b 834 267 819 237 834 251 b 803 299 834 284 819 299 l 673 299 l 673 944 b 634 984 673 967 657 984 b 600 966 617 984 608 977 l 74 304 b 63 274 66 292 63 283 b 100 237 63 252 78 237 l 605 237 l 605 29 m 151 299 l 605 874 l 605 299 l 151 299 "},"R":{"x_min":141.5625,"x_max":884.71875,"ha":1004,"o":"m 141 30 b 176 -5 141 11 157 -5 b 212 30 196 -5 212 11 l 212 402 l 524 402 l 816 13 b 847 -5 824 2 834 -5 b 884 31 867 -5 884 12 b 873 56 884 40 880 48 l 602 415 b 882 692 763 437 882 530 l 882 695 b 809 875 882 764 854 830 b 541 971 752 934 658 971 l 176 971 b 141 935 157 971 141 955 l 141 30 m 212 467 l 212 905 l 537 905 b 811 692 710 905 811 823 l 811 689 b 533 467 811 549 692 467 l 212 467 "},"o":{"x_min":78.9375,"x_max":792.171875,"ha":889,"o":"m 434 -16 b 792 354 641 -16 792 155 l 792 356 b 436 724 792 555 642 724 b 78 354 230 724 78 552 l 78 351 b 434 -16 78 152 228 -16 m 436 47 b 151 354 276 47 151 183 l 151 356 b 434 660 151 523 269 660 b 720 354 594 660 720 524 l 720 351 b 436 47 720 184 601 47 "},"5":{"x_min":81.671875,"x_max":743.171875,"ha":840,"o":"m 411 -16 b 743 295 602 -16 743 116 l 743 298 b 416 591 743 471 600 591 b 205 538 328 591 266 569 l 228 902 l 672 902 b 706 936 691 902 706 917 b 672 971 706 956 691 971 l 200 971 b 163 932 181 971 164 959 l 140 532 b 157 484 138 512 144 494 b 197 471 168 477 181 471 b 408 525 220 471 284 525 b 669 295 562 525 669 432 l 669 292 b 413 48 669 152 564 48 b 145 174 318 48 225 97 b 115 187 138 181 126 187 b 81 153 96 187 81 170 b 96 121 81 141 85 133 b 411 -16 174 45 289 -16 "}}}
